<svg width="512" height="250" viewBox="0 0 512 250" fill="none" xmlns="http://www.w3.org/2000/svg">
<rect width="512" height="250" fill="white"/>
<path d="M157 139.119V115.326H170.269C177.731 115.326 184.283 115.725 185.241 116.238C186.828 117.088 186.945 118.231 186.945 132.918C186.945 151.992 187.224 151.456 177.288 151.456C169.465 151.456 169.33 151.576 169.33 158.578V162.912H163.165H157V139.119ZM173.734 133.485C173.734 123.861 173.492 121.59 172.426 121.181C170.182 120.32 169.33 123.645 169.33 133.261C169.33 143.678 169.696 145.287 172.066 145.287C173.619 145.287 173.734 144.477 173.734 133.485ZM192.26 161.207C191.701 160.162 191.348 150.955 191.348 137.414V115.326H197.954H204.559V134.544C204.559 149.275 204.836 154.142 205.746 155.387C208.478 159.125 208.963 156.133 208.963 135.542V115.326H215.568H222.173V138.061C222.173 154.569 221.884 161.086 221.116 161.854C220.387 162.584 215.898 162.912 206.616 162.912C194.225 162.912 193.1 162.778 192.26 161.207ZM226.577 140.176C226.577 123.668 226.866 117.151 227.634 116.383C229.136 114.881 270.696 114.881 272.198 116.383C272.966 117.151 273.255 123.668 273.255 140.176V162.912H266.65H260.044V142.138C260.044 122.829 259.936 121.386 258.503 121.662C257.096 121.932 256.941 123.743 256.725 142.435L256.489 162.912H249.9H243.311V142.752C243.311 127.099 243.05 122.375 242.145 121.623C239.364 119.314 238.907 122.307 238.907 142.82V162.912H232.742H226.577V140.176ZM278.539 140.031C278.539 118.312 278.626 117.104 280.243 116.238C282.706 114.919 306.089 115.044 307.427 116.383C308.194 117.151 308.484 123.668 308.484 140.176V162.912H301.919H295.354L295.093 156.963C294.893 152.379 294.53 151.015 293.512 151.015C292.494 151.015 292.131 152.379 291.93 156.963L291.67 162.912H285.105H278.539V140.031ZM294.833 133.317C294.833 123.787 294.618 121.935 293.512 121.935C292.425 121.935 292.146 123.803 291.941 132.458C291.676 143.615 291.966 145.656 293.732 145.067C294.537 144.799 294.833 141.638 294.833 133.317Z" fill="black"/>
<path d="M335.319 142.257C334.762 141.586 333.788 139.25 333.595 136.802C333.255 132.501 334.14 132.814 328.874 127.523C324.627 123.257 321.865 120.454 319.955 114.833C316.949 105.982 313.014 103.662 308.197 103.662C303.735 103.662 296.632 102.231 292.832 100.566C291.031 99.7766 287.536 97.3074 285.065 95.0786L280.572 91.0263L278.509 92.6504C275.769 94.8067 271.912 94.6989 266.101 92.3038C260.692 90.0743 259.671 90.2113 259.671 91.7787C259.671 93.6262 258.237 93.71 256.19 92.3682C251.883 89.5444 255.52 84.948 262.76 85.3085C267.07 85.5211 267.274 85.5587 267.274 83.7969C267.274 81.7137 265.989 80.9751 262.366 80.9751C260.81 80.9751 259.454 80.4581 258.101 79.1606C257.271 78.6601 256.529 78.2703 256.054 77.1298C256.45 75.6821 256.856 74.7605 257.627 74.0643C258.376 72.6018 259.266 71.0234 260.847 70.0247C261.757 69.4497 262.644 67.6591 263.337 66.9529C263.95 66.3282 263.924 66.1326 264.981 67.0048C266.066 67.9014 266.488 67.9062 267.538 67.0343C268.596 66.1554 268.937 66.1846 269.693 67.2189C270.187 67.8946 271.974 69.7238 274.436 70.3029C281.297 71.9168 287.363 75.5422 298.413 84.6621C312.49 96.2809 313.892 95.7801 320.577 96.4513C328.422 97.239 331.372 94.3213 337 81.9035C340.694 73.7505 343.088 70.6239 347.553 67.8031C351.347 65.4071 354.658 65.3176 354.921 68.0253C355.174 70.6222 355.146 71.8635 349.555 75.2395C343.337 78.994 341.495 80.9088 337.584 89.013C335.571 93.1861 333.126 96.9135 331.348 98.5203L328.424 101.163L330.367 105.091C331.805 107.998 332.405 110.71 332.678 115.533C333.183 124.482 332.582 123.642 335.603 126.51C337.007 127.844 337.558 126.777 338.129 129.463C338.671 132.012 338.812 133.281 339.994 136.487C340.734 138.492 340.056 137.334 339.776 140.168C339.563 142.325 340.07 141.518 339.128 143.766C338.717 144.747 335.876 142.929 335.319 142.257Z" fill="black"/>
</svg>
